<svg width="47" height="40" viewBox="0 0 47 40" fill="none" xmlns="http://www.w3.org/2000/svg">
<path d="M34.7994 13.3333C34.7994 10.6811 33.6089 8.13755 31.4897 6.26218C29.3706 4.38682 26.4964 3.33325 23.4994 3.33325C20.5025 3.33325 17.6283 4.38682 15.5091 6.26218C13.39 8.13755 12.1994 10.6811 12.1994 13.3333C12.1994 24.9999 6.54944 28.3332 6.54944 28.3332H40.4494C40.4494 28.3332 34.7994 24.9999 34.7994 13.3333Z" stroke="#FFB81E" stroke-width="2.5" stroke-linecap="round" stroke-linejoin="round"/>
<path d="M26.7575 35C26.4264 35.5051 25.9512 35.9244 25.3794 36.2159C24.8076 36.5073 24.1593 36.6608 23.4994 36.6608C22.8395 36.6608 22.1912 36.5073 21.6194 36.2159C21.0476 35.9244 20.5723 35.5051 20.2412 35" stroke="#FFB81E" stroke-width="2.5" stroke-linecap="round" stroke-linejoin="round"/>
</svg>
