<svg width="47" height="40" viewBox="0 0 47 40" fill="none" xmlns="http://www.w3.org/2000/svg">
<path d="M26.7575 35C26.4264 35.5051 25.9512 35.9244 25.3794 36.2159C24.8076 36.5073 24.1593 36.6608 23.4994 36.6608C22.8395 36.6608 22.1912 36.5073 21.6194 36.2159C21.0476 35.9244 20.5723 35.5051 20.2412 35" stroke="#FFB81E" stroke-width="2.5" stroke-linecap="round" stroke-linejoin="round"/>
<path d="M35.9858 21.6666C35.148 18.9523 34.7485 16.1467 34.7993 13.3333" stroke="#FFB81E" stroke-width="2.5" stroke-linecap="round" stroke-linejoin="round"/>
<path d="M12.6891 10.4335C12.3619 11.3728 12.1968 12.3505 12.1994 13.3335C12.1994 25.0001 6.54944 28.3335 6.54944 28.3335H32.9161" stroke="#FFB81E" stroke-width="2.5" stroke-linecap="round" stroke-linejoin="round"/>
<path d="M34.7994 13.3333C34.8025 11.5218 34.2494 9.7435 33.1992 8.18847C32.1491 6.63345 30.6413 5.36008 28.837 4.50439C27.0327 3.64869 24.9996 3.24281 22.9549 3.3301C20.9102 3.41739 18.9308 3.99457 17.2279 4.99999" stroke="#FFB81E" stroke-width="2.5" stroke-linecap="round" stroke-linejoin="round"/>
<path d="M2.78271 1.66675L44.216 38.3334" stroke="#FFB81E" stroke-width="2.5" stroke-linecap="round" stroke-linejoin="round"/>
</svg>
