<svg width="150" height="150" viewBox="0 0 150 150" fill="none" xmlns="http://www.w3.org/2000/svg">
<circle cx="75" cy="75" r="75" fill="#FFB81E"/>
<path d="M89.6667 89V85.6667C89.6667 83.8986 88.873 82.2029 87.4602 80.9526C86.0474 79.7024 84.1313 79 82.1333 79H67.0667C65.0687 79 63.1526 79.7024 61.7398 80.9526C60.327 82.2029 59.5333 83.8986 59.5333 85.6667V89" stroke="white" stroke-width="2.5" stroke-linecap="round" stroke-linejoin="round"/>
<path d="M74.6 72.3333C78.7605 72.3333 82.1333 69.3486 82.1333 65.6667C82.1333 61.9848 78.7605 59 74.6 59C70.4394 59 67.0667 61.9848 67.0667 65.6667C67.0667 69.3486 70.4394 72.3333 74.6 72.3333Z" stroke="white" stroke-width="2.5" stroke-linecap="round" stroke-linejoin="round"/>
</svg>
